<svg xmlns="http://www.w3.org/2000/svg" width="228" height="121" viewBox="0 0 228 121" fill="none">
<g filter="url(#filter0_i_1_2)">
<path d="M0.123963 121V117.157L3.78396 115.876C7.68796 114.656 9.63996 111.606 9.63996 106.726C9.76196 99.772 9.82296 92.696 9.82296 85.498C9.82296 78.178 9.82296 70.736 9.82296 63.172V56.767C9.82296 49.691 9.82296 42.615 9.82296 35.539C9.82296 28.463 9.76196 21.387 9.63996 14.311C9.63996 9.309 7.74896 6.198 3.96696 4.978L0.123963 3.87999V0.0369976H48.253C61.063 0.0369976 72.104 2.416 81.376 7.17399C90.648 11.932 97.785 18.825 102.787 27.853C107.789 36.759 110.29 47.556 110.29 60.244C110.29 73.176 107.545 84.156 102.055 93.184C96.687 102.212 89.062 109.105 79.18 113.863C69.42 118.621 58.013 121 44.959 121H0.123963ZM36.175 115.693H45.508C54.17 115.693 61.185 113.985 66.553 110.569C72.043 107.153 76.069 101.419 78.631 93.367C81.193 85.193 82.474 74.213 82.474 60.427C82.474 46.641 81.193 35.722 78.631 27.67C76.069 19.618 72.104 13.884 66.736 10.468C61.49 7.05199 54.658 5.34399 46.24 5.34399H36.175C36.053 13.762 35.992 22.302 35.992 30.964C35.992 39.504 35.992 48.105 35.992 56.767V62.989C35.992 72.139 35.992 81.106 35.992 89.89C35.992 98.552 36.053 107.153 36.175 115.693ZM110.124 121V117.157L113.601 116.059C116.041 115.205 117.688 114.107 118.542 112.765C119.396 111.301 119.823 109.349 119.823 106.909V14.311C119.823 11.871 119.396 9.91899 118.542 8.455C117.81 6.991 116.224 5.832 113.784 4.978L110.124 3.87999V0.0369976H155.325V3.87999L152.214 4.79499C149.896 5.64899 148.31 6.80799 147.456 8.27199C146.602 9.61399 146.175 11.505 146.175 13.945V56.035H191.742V13.945C191.742 11.505 191.315 9.61399 190.461 8.27199C189.607 6.80799 187.96 5.64899 185.52 4.79499L182.592 3.87999V0.0369976H227.793V3.87999L224.316 4.978C221.998 5.832 220.351 6.991 219.375 8.455C218.521 9.797 218.094 11.688 218.094 14.128V106.909C218.094 109.349 218.521 111.301 219.375 112.765C220.351 114.107 221.998 115.205 224.316 116.059L227.793 117.157V121H182.592V117.157L185.52 116.242C187.96 115.388 189.607 114.29 190.461 112.948C191.315 111.484 191.742 109.532 191.742 107.092V61.525H146.175V107.092C146.175 109.532 146.602 111.484 147.456 112.948C148.432 114.29 150.079 115.388 152.397 116.242L155.325 117.157V121H110.124Z" fill="#151414"/>
</g>
<defs>
<filter id="filter0_i_1_2" x="0.123962" y="0.0370026" width="227.669" height="124.963" filterUnits="userSpaceOnUse" color-interpolation-filters="sRGB">
<feFlood flood-opacity="0" result="BackgroundImageFix"/>
<feBlend mode="normal" in="SourceGraphic" in2="BackgroundImageFix" result="shape"/>
<feColorMatrix in="SourceAlpha" type="matrix" values="0 0 0 0 0 0 0 0 0 0 0 0 0 0 0 0 0 0 127 0" result="hardAlpha"/>
<feOffset dy="4"/>
<feGaussianBlur stdDeviation="2"/>
<feComposite in2="hardAlpha" operator="arithmetic" k2="-1" k3="1"/>
<feColorMatrix type="matrix" values="0 0 0 0 0 0 0 0 0 0 0 0 0 0 0 0 0 0 0.25 0"/>
<feBlend mode="normal" in2="shape" result="effect1_innerShadow_1_2"/>
</filter>
</defs>
</svg>